<svg xmlns="http://www.w3.org/2000/svg" xml:space="preserve" width="2433.6" height="1406"><style>.st0{fill:#414042}</style><g class="layer"><g id="svg_1"><path id="svg_2" d="m1999.18 895.11 119.12-498.54h-255.75l-108.96 446.94c-15.79 87.16-108.83 127.99-174.73 129.06H1397.5l-61.45 179.72h380.91c93.9 0 232.59-48.39 282.23-257.19" class="st0"/><path id="svg_3" d="m1462.19 719.33 120.24-506.76h263.32l-136.9 576.33c-26.34 111.28-108.43 137.95-184.35 137.95H917.84c-66.82.13-122.9-28.54-92.57-156.93l54.68-229.85c27.67-116.7 113.74-143.3 176.05-143.3h423.44l-34.18 143.7h-216.13c-31.79 0-49.17 6.75-58.2 44.11l-34.77 146.84c-12.48 52.67 5.84 56.28 44.2 56.28h198.09c36.23.07 68.09-2.21 83.75-68.37m713.97-322.76-123.89 530.28h255.69l123.89-530.28z" class="st0"/></g></g></svg>