<svg xmlns="http://www.w3.org/2000/svg" width="1028.9351" height="171.233"><g class="layer"><path d="M921.294 56.259v59.137c0 3.844 1.882 5.806 5.766 6.006h19.499v6.647c0 .72-.4 1.281-1.241 1.281h-31.551c-9.73 0-11.171-5.365-11.171-10.25V60.263c0-2.763 1.041-4.084 4.324-4.004zm-36.356 0v69.187c0 3.083-1.321 3.884-3.924 3.884H866.2V60.063c0-2.283.88-3.804 4.204-3.804zM575.441 66.327c0-5.565 0-10.09 9.169-10.09h40.2v7.048c0 .48-.241.96-.922.96l-24.103-.04c-3.243 0-4.885 1.562-4.885 4.845v18.538h28.388v7.367c0 .681-.44 1.001-1.081 1.001H594.9v29.429c-.04 2.843-1.481 3.964-4.564 3.924H575.44zm78.419-10.075v55.694c0 4.765.681 8.128 4.045 10.05 4.484 2.602 12.091 2.642 16.696.08 3.123-1.762 4.324-4.565 4.324-10.13v-51.97c0-2.363.881-3.724 4.164-3.724h14.534v54.052c0 12.533-7.887 17.698-14.894 19.58-9.29 2.562-23.383 2.602-32.152-.04-10.49-3.164-15.415-9.37-15.415-19.54V60.015c0-2.442.881-3.763 3.644-3.763zm353.968.011c-3.684 0-5.806 1.722-6.647 5.005l-11.892 50.369h-.32l-12.332-55.374h-16.816c-3.243 0-4.284 1.681-4.284 4.244v68.787h7.126c1.122 0 1.602-.56 1.602-1.722V69.876h1.121l15.215 59.418h9.97c3.763 0 5.165-1.521 6.086-5.245l13.653-54.173h1.121v59.418h13.293c3.243 0 4.725-1.241 4.725-4.444V56.263zM786.573 95.958h-18.698v33.352h14.774c2.603 0 3.924-.76 3.924-3.843z"/><path fill="#ed1a3a" d="M785.482 81.706c.64-.52 1.04-.921 1.08-2.082V56.28H772.03c-3.244 0-4.165 1.561-4.165 3.844v35.394z"/><path d="M721.325 123.532c8.128-1.161 10.85-5.966 10.85-13.093V60.23c0-3.003 1.602-3.964 3.724-3.964h14.975v47.446c0 11.692-2.482 17.577-9.37 22.542-3.603 2.603-9.889 5.566-23.542 5.566-7.808 0-11.291-.44-11.732-.56-.68-.161-.96-.561-.96-1.122v-6.126c3.243.08 10.57.32 16.055-.48m93.599-67.28c-9.129 0-9.129 4.524-9.129 10.09V85.16c0 .4-.2.52-.36.72l-12.813 10.09h13.173v33.353h14.855c3.123.04 4.524-1.081 4.564-3.924V95.97h27.347c.64 0 1.04-.36 1.04-1v-7.368h-28.387V69.064c0-3.283 1.642-4.845 4.885-4.845h24.103c.681 0 .961-.44.961-.92v-7.047z"/></g></svg>