<svg xmlns="http://www.w3.org/2000/svg" width="608.984375" height="200" class="icon" viewBox="0 0 3118 1024"><path fill="#C11733" d="M967.872 472.3q0-73.925-4.107-123.21c12.32 41.07 24.641 75.295 35.593 104.044L1123.936 768h67.08l123.209-299.807c13.69-32.856 26.01-72.557 39.7-119.102-2.738 47.914-5.476 88.984-5.476 123.208v294.332h86.246V258.738h-117.732l-120.471 297.07c-13.69 34.224-26.01 68.449-35.594 104.042-9.582-35.593-20.534-69.818-34.224-104.043L1008.94 258.738H887.1v507.893h79.402zm672.17 158.802h203.98L1894.673 768h94.46l-203.979-509.262h-84.877l-199.872 507.893h88.984zm79.402-216.3c8.214-21.904 15.059-45.176 21.904-65.711 6.845 24.642 15.058 46.545 21.903 67.08l54.76 145.112h-151.958zM2127.4 743.358c41.07 21.904 86.246 32.856 132.792 31.487 31.486 0 64.342-4.107 95.828-10.952s62.974-17.797 91.722-31.487v-214.93h-202.61v67.08h117.733V687.23c-15.059 5.476-31.486 9.583-47.914 12.32-16.428 2.739-34.225 4.108-50.653 4.108-32.855 1.369-64.342-6.845-93.09-24.642-24.642-16.428-42.439-39.7-53.39-67.08-12.322-30.118-17.798-62.973-16.429-97.198-1.369-36.963 6.845-72.556 21.904-105.412 13.69-27.38 35.594-50.652 61.604-65.711 28.75-15.059 60.236-23.273 93.091-23.273q69.818 2.054 131.423 32.856l21.904-67.08c-23.273-10.952-49.284-20.535-73.926-26.011-27.38-6.845-56.128-9.583-83.508-9.583-46.545-1.369-93.09 9.583-134.16 30.118-39.7 20.534-72.556 50.652-94.46 90.353-24.642 45.176-36.963 94.46-34.225 145.112-1.369 47.914 9.583 94.46 30.118 136.898 19.166 38.332 49.284 69.819 86.246 90.353M757.048 257.37H618.781l-50.653 75.294 67.08 102.674zm2105.497 436.706h-213.561V538.01h191.658v-68.45h-191.658V329.925h202.61l8.213-72.556H2560v509.262h294.332zM258.738 768h134.16L566.76 502.417 398.374 258.738H257.37l179.337 249.155zm498.31 0-121.84-179.337-67.08 102.674 50.653 75.294h138.267z"/></svg>