<svg xmlns="http://www.w3.org/2000/svg" width="768" height="768" version="1.0" viewBox="0 0 28.346251 28.346251"><path d="M25.512 382.678c6.262 0 11.339 5.076 11.339 11.336 0 6.263-5.077 11.341-11.339 11.341s-11.338-5.078-11.338-11.341c0-6.26 5.075-11.336 11.338-11.336" style="fill:#ed1c24;fill-opacity:1;fill-rule:nonzero;stroke:none" transform="matrix(1.25 0 0 -1.25 -17.718 506.694)"/><path d="M9.594 7.844C6.92 7.74 6.196 11.539 6.03 12.188c-.008.046-.031.062-.031.062-.825-.113-1.281-.281-1.281-.281l-.188.531c.557.264 1.375.344 1.375.344-.16 1.021-.968 2.937-.968 2.937s-.718-.219-1.625-.219c-1.18 0-1.596.556-1.626.907-.077.91 1.077 1.343 1.876 1.343 1.558 0 2.375-.843 2.375-.843s4.363 1.656 8.937 1.656c5.986 0 11.031-1.594 11.031-1.594l-.156-.562s-3.656 1.273-10.656 1.187c-4.829-.059-8.531-1.468-8.531-1.468s.14-.25.218-.407c.484-.986 1.063-2.969 1.063-2.969s3.312-.927 3.312-3.562c0-.834-.796-1.372-1.562-1.406m.125.75c.514 0 .699.406.656.781-.25 2.201-2.437 2.719-2.437 2.719s.528-3.5 1.78-3.5m5.312 1.812c-.556 0-.937.229-.937.75 0 .528.445.656.937.656.494 0 .969-.212.969-.75s-.566-.656-.969-.656m7.406 1.906c-1.597 0-2.462 1.378-2.5 2.188-.007.176-.03.188-.03.188-.038.042-.588.687-1.282.687-.555 0-.656-.453-.656-.75 0-.322.275-1.594 1.031-1.594.411 0 .656.344.656.344l.219-.719s-.345-.279-1.062-.281c-1.545-.001-2.588 1.143-2.625 2.188-.008.156-.034.208-.032.218-.051.063-.412.5-.906.5-.338 0-.344-.258-.344-.375 0-.159.656-2.437.656-2.437l-1.75.031-.593 2.219s-.975.686-2.313.781c-.69.047-.937-.379-.937-.625v-.094c.001 0 .29.031.5.031.165 0 2.219-.158 2.219-1.406 0-.713-.724-.969-1.626-.969-1.666 0-2.843 1.024-2.843 2.25 0 1.12.955 1.594 2.187 1.594 1.399 0 2.781-.843 2.781-.843s.084.843 1.188.843c1.139 0 2.031-.843 2.031-.843s.493.812 1.625.812c1.158 0 2.032-.937 2.032-.937s.322.874 1.468.874c.896 0 1.375-.562 1.375-.562s.25.563 1.032.563c.953 0 1.656-.657 1.656-.657l-.157-.562s-.362.281-.625.281c-.198 0-.312-.161-.312-.344 0-.41.656-2.437.656-2.437l-1.593.031-.063.25s-.238-.437-1.062-.437m-11.312.626c.235.013.414.172.406.343-.039 1.11-1.406.938-1.406.938s.201-1.33 1-1.281m11.625.03c.329 0 .5.262.5.47 0 .042-.186 1.937-1.125 1.937-.43 0-.437-.489-.437-.625 0-.361.283-1.781 1.062-1.781M3 16.25a1.2 1.2 0 0 1 .219 0 4.5 4.5 0 0 1 1.281.281s-.704.545-1.281.563c-.442.014-.719-.274-.719-.438 0-.272.255-.381.5-.406" style="fill:#fff;fill-opacity:1;fill-rule:nonzero;stroke:none"/></svg>