<svg xmlns="http://www.w3.org/2000/svg" xml:space="preserve" width="250" height="80" viewBox="0 0 470.17334 88.839996"><path d="M610.277 650.797h168.36V337.766h211.679v-90.989H610.277zM2743.86 230.586c-131.18 0-241.56 39.035-241.56 146.59v273.621h162.95v-261.16c0-50.539 37.35-73.621 78.61-73.621 41.31 0 78.58 23.082 78.58 73.621v261.16h162.94V377.176c0-107.555-110.29-146.59-241.52-146.59m582.9 312.801h172.21c-9.02 92.781-139.66 120.476-240.86 120.476-101.13 0-232.99-33.07-232.99-134.297 0-73.972 72.36-97.605 123.14-107.898 36.03-7.273 96.08-17.492 126.12-24.105 41.76-9.149 63.42-17.645 63.42-42.274 0-26.344-24.33-39.789-74.18-39.789-47.29 0-75.58 14.68-83.42 48.016l-175.48-.036c10.31-110.023 151.32-134.105 262.58-134.105 112 0 245.83 26.633 245.83 135.719 0 59.215-38.11 98.636-132.02 117.429-49.15 9.821-117.27 22.598-143.44 27.122-34.75 6.039-47.1 18.554-47.1 35.593 0 17.614 16.83 36.063 65.52 36.063 41.14 0 63.34-12.008 70.67-37.914m-1173.01-59.653v78.805h106.83c26.6 0 49.34-12.441 49.34-38.07 0-22.633-13.07-40.735-49.55-40.735zm165.77-88.187c121.23 0 152.11 77.105 152.11 126.367 0 45.313-26.08 128.883-151.95 128.883h-325.9l.02-404.02h159.98v148.77zm-1126.69 245.43 4.6 9.82h168.88L1190.6 382.828V246.777h-159.81v136.051L855.605 650.797h168.305l4.7-9.82 76.17-133.789c5.03-8.559 6.54-8.559 12.08 0zm510.85-394.2 2.99 8.067 85.84 199.605c2.22 5.239 7.37 3.817 7.44-.765V246.777h137.81v404.02h-166.55l-3.06-8.688-102.66-231.757c-3.78-8.762-7.28-8.731-11.08 0L1551.8 642.109l-3.07 8.688h-166.58v-404.02h137.86v206.907c.05 4.582 5.2 6.004 7.46.765l85.78-199.605 3-8.067zM402.754 448.77c0 81.738-42.289 132.183-112.399 132.183-70.14 0-112.394-50.445-112.394-132.183 0-81.7 42.254-132.09 112.394-132.09 70.11 0 112.399 50.39 112.399 132.09m169.508 0c0-135.704-117.731-217.45-281.907-217.45-164.195 0-281.902 81.746-281.902 217.45 0 135.793 117.707 217.503 281.902 217.503 164.176 0 281.907-81.71 281.907-217.503" style="fill:#284496;fill-opacity:1;fill-rule:nonzero;stroke:none" transform="matrix(.13333 0 0 -.13333 0 88.84)"/><path d="M0 45.39 1763.16 0l1763.17 45.39v20.774l-1763.17 45.488L0 66.164z" style="fill:#fab20b;fill-opacity:1;fill-rule:nonzero;stroke:none" transform="matrix(.13333 0 0 -.13333 0 88.84)"/></svg>