<svg xmlns="http://www.w3.org/2000/svg" width="355.46875" height="200" class="icon" viewBox="0 0 1820 1024"><path fill="#DF3232" d="M718.222 512c0 61.156 45.511 105.244 120.89 105.244 31.288 0 61.155-5.688 92.444-19.91l28.444 38.4c-39.822 21.333-76.8 32.71-135.111 32.71-120.889 0-209.067-58.31-209.067-156.444S704 355.556 824.89 355.556c58.311 0 91.022 8.533 130.844 25.6l-28.444 44.088c-31.289-17.066-56.889-19.91-89.6-19.91-73.956 1.422-119.467 45.51-119.467 106.666M1177.6 355.556c-116.622 0-200.533 58.31-200.533 156.444s83.91 156.444 200.533 156.444 200.533-58.31 200.533-156.444-83.91-156.444-200.533-156.444m0 264.533c-64 0-99.556-48.356-99.556-108.089s35.556-108.089 99.556-108.089 99.556 48.356 99.556 108.089-35.556 108.089-99.556 108.089m503.467-85.333V659.91h96.71V364.09h-96.71v113.778h-146.49V364.089h-96.71v297.244h96.71V536.178h146.49zM456.533 364.089h100.978v297.244H456.533zM166.4 499.2v28.444c48.356 36.978 96.711 85.334 132.267 132.267h113.777c-39.822-46.933-99.555-100.978-145.066-129.422C320 527.644 378.31 507.733 378.31 446.578c0-76.8-82.489-91.022-166.4-91.022-68.267 0-130.844 2.844-167.822 5.688V658.49h93.867V408.178c17.066-1.422 36.977-4.267 73.955-4.267 48.356 0 73.956 15.645 73.956 44.089 0 24.178-9.956 52.622-119.467 51.2"/></svg>