<svg xmlns="http://www.w3.org/2000/svg" width="500.00001" height="89.67711"><path d="M359.95 64.99c-7.82 0-15.09-2.35-19.94-6.7-3.66-3.29-5.42-7.75-5.42-12.35 0-4.54 1.83-9.03 5.42-12.31 4.5-4.1 12.45-6.68 19.94-6.68 8.28 0 14.91 2.09 19.98 6.68 3.6 3.27 5.35 7.75 5.35 12.3 0 4.41-1.85 9.1-5.35 12.35-4.72 4.38-12.14 6.7-19.98 6.7v-5.02c4.15 0 8-1.43 10.7-4.11 2.67-2.66 3.92-5.93 3.92-9.92 0-3.83-1.34-7.4-3.92-9.94-2.65-2.62-6.6-4.09-10.7-4.09-4.11 0-8.06 1.46-10.71 4.09-2.56 2.54-3.91 6.12-3.91 9.94 0 3.8 1.36 7.39 3.91 9.92 2.66 2.64 6.59 4.11 10.71 4.11v5.02zm-57.19-38.01c-4.19 0-8.94.79-12.98 2.59-3.73 1.66-6.78 4.35-6.78 8.81 0 4.02 2.55 6.37 2.48 6.31 1.09 1 2.84 2.7 7.41 3.7 2.04.45 6.41 1.13 10.76 1.58 4.32.46 8.57.89 10.29 1.33 1.38.35 3.69.83 3.69 3.42 0 2.58-2.43 3.37-2.85 3.54-.43.17-3.34 1.51-8.59 1.51-3.87 0-8.53-1.17-10.23-1.77-1.96-.7-4.01-1.62-5.92-3.96-.48-.58-1.23-2.18-1.23-3.76h-4.75v13.31h5.28v-1.8c0-.2.26-1.05 1.14-.65 1.1.5 4.34 1.79 7.72 2.49 2.78.58 4.56 1 8.01 1 5.63 0 8.65-.92 10.74-1.51 1.97-.56 4.4-1.57 6.38-3.15 1.07-.85 3.42-3.04 3.42-7 0-3.81-2.04-6.17-2.76-6.89-.98-.98-2.17-1.74-3.42-2.32-1.08-.51-2.8-1.12-4.2-1.47-2.72-.67-8.87-1.49-11.81-1.8-3.09-.33-8.44-.77-10.57-1.43-.65-.2-1.97-.83-1.97-2.36 0-1.09.6-2.02 1.8-2.76 1.9-1.19 5.73-1.93 9.72-1.93 4.72-.02 8.71 1.06 11.26 2.19.86.39 1.88.94 2.68 1.6.91.74 2.18 2.28 2.64 4.42h4.26V28.63h-4.76v1.34c0 .44-.45 1-1.3.53-2.13-1.11-8.15-3.53-15.54-3.54m104.33 2.1 23.22 20.96-.24-14.11c-.03-1.85-.36-2.62-2.37-2.62h-4.36v-4.22h19.86v4.22h-4.26c-2.04 0-2.17.65-2.19 2.62l.36 26.96h-6.8L403.58 39v16.95c.03 1.84.11 2.71 2.01 2.71h4.77v4.22h-19.5v-4.22h4.56c1.7 0 1.64-1.62 1.64-2.8V36.08c0-1.28-.18-2.78-2.85-2.78h-3.7v-4.23h16.61zm58.8 29.58c.19 0 1.01-.02 1.18-.07.46-.14.77-.47.92-.81.06-.14.09-.78.09-.92v-6.67c0-.16-.01-.23-.28-.59-.3-.39-12.17-13.84-12.71-14.43-.67-.73-1.86-1.87-3.66-1.87h-4.12v-4.22h23.28v4.22h-2.81c-.65 0-1.08.62-.52 1.3 0 0 7.83 9.37 7.91 9.47.07.1.13.13.23.03s8.03-9.42 8.09-9.49c.38-.45.12-1.31-.69-1.31h-2.88v-4.22h19.08v4.22h-4.26c-1.55 0-2.18.29-3.34 1.6-.53.6-12.52 14.29-12.85 14.66-.17.2-.16.46-.16.62v6.67c0 .13.03.77.09.91.15.34.46.67.92.81.16.05.98.07 1.17.07h4.36v4.22h-23.17v-4.22h4.13z" class="layer"/></svg>