<svg xmlns="http://www.w3.org/2000/svg" width="128" height="128" class="icon" viewBox="0 0 1024 1024"><defs><style>@font-face{font-family:feedback-iconfont;src:url(//at.alicdn.com/t/font_1031158_u69w8yhxdu.woff2?t=1630033759944)format(&quot;woff2&quot;),url(//at.alicdn.com/t/font_1031158_u69w8yhxdu.woff?t=1630033759944)format(&quot;woff&quot;),url(//at.alicdn.com/t/font_1031158_u69w8yhxdu.ttf?t=1630033759944)format(&quot;truetype&quot;)}</style></defs><path fill="#707070" d="M554.667 640v85.333h-85.334V640zm0-42.667h-85.334v-64A42.667 42.667 0 0 1 512 490.667a64 64 0 1 0-62.763-76.544l-83.712-16.768a149.376 149.376 0 1 1 189.142 172.458zM213.333 170.667v682.666h597.334v-512H640V170.667zm-42.709-85.334h512.043L896 298.667V895.7a42.667 42.667 0 0 1-42.368 42.966H170.368A42.667 42.667 0 0 1 128 896.34V127.66c0-23.382 19.072-42.326 42.624-42.326"/></svg>