<svg xmlns="http://www.w3.org/2000/svg" width="128" height="128" class="icon" viewBox="0 0 1024 1024"><defs><style>@font-face{font-family:feedback-iconfont;src:url(//at.alicdn.com/t/font_1031158_u69w8yhxdu.woff2?t=1630033759944)format(&quot;woff2&quot;),url(//at.alicdn.com/t/font_1031158_u69w8yhxdu.woff?t=1630033759944)format(&quot;woff&quot;),url(//at.alicdn.com/t/font_1031158_u69w8yhxdu.ttf?t=1630033759944)format(&quot;truetype&quot;)}</style></defs><path fill="#FF6A00" d="M716.8 0C886.464 0 1024 137.536 1024 307.2v409.6c0 169.664-137.536 307.2-307.2 307.2H307.2C137.536 1024 0 886.464 0 716.8V307.2C0 137.536 137.536 0 307.2 0zM529.613 320.525H228.608a4.237 4.237 0 0 0-4.198 4.275v372.608a4.224 4.224 0 0 0 4.198 4.25h80.41c2.316 0 4.198-1.92 4.198-4.288V404.928c0-2.368 1.882-4.3 4.198-4.3h172.903c32.473 0 58.803 27.007 58.803 60.3V697.37c0 2.368 1.882 4.288 4.186 4.288h79.232a4.224 4.224 0 0 0 4.172-4.276V430.387c0-60.672-47.936-109.862-107.084-109.862zm-59.469 148.467H389.76a4.25 4.25 0 0 0-4.198 4.3v224.09c0 2.381 1.868 4.288 4.198 4.288h80.384a4.14 4.14 0 0 0 2.957-1.241 4.34 4.34 0 0 0 1.229-3.047V473.28a4.35 4.35 0 0 0-1.23-3.046 4.13 4.13 0 0 0-2.956-1.255zM791.578 320.55h-80.359c-2.33 0-4.224 1.92-4.224 4.301v372.531c0 2.381 1.895 4.288 4.224 4.288h80.359c2.33 0 4.21-1.92 4.21-4.288V324.838a4.35 4.35 0 0 0-1.228-3.046 4.15 4.15 0 0 0-2.982-1.254z"/></svg>